<svg id="Layer_1" enable-background="new 0 0 128 128" height="512" viewBox="0 0 128 128" width="512" xmlns="http://www.w3.org/2000/svg"><path d="m114 57.3c0-1.9-1.6-3.3-3.3-3.3-1.8 0-3.3 1.5-3.3 3.3 0 1.8-1.5 3.3-3.3 3.3-.1 0-6.9 0-6.8 0-.7-6.5-3.2-12.7-7.4-17.8l4.8-4.8c1.4-1.5 3.7-1.1 4.7 0 2 2 4.3.4 4.7 0 1.3-1.3 1.3-3.4 0-4.7l-9.4-9.4c-1.3-1.3-3.4-1.3-4.7 0-1.3 1.3-1.3 3.4 0 4.7s1.3 3.4 0 4.7l-4.8 4.8c-5.1-4.1-11.3-6.7-17.8-7.4v-6.7c0-1.8 1.5-3.3 3.3-3.3 1.8 0 3.4-1.4 3.4-3.3s-1.5-3.4-3.4-3.4h-13.4c-1.8 0-3.3 1.5-3.3 3.3 0 1.8 1.4 3.3 3.3 3.3 1.8 0 3.3 1.5 3.3 3.3v6.8c-6.5.7-12.7 3.2-17.8 7.4l-4.8-4.8c-1.2-1.2-1.4-3.3 0-4.7s1.3-3.6-.2-4.9c-1.3-1.2-3.3-1.1-4.5.2l-9.4 9.4c-1.1 1.1-1.3 2.9-.4 4.2 1.1 1.6 3.5 2.2 5.1.5 1.3-1.2 3.3-1.3 4.7 0l4.8 4.8c-4.1 5.1-6.7 11.3-7.4 17.8h-6.7c-1.8 0-3.3-1.5-3.3-3.3 0-1.8-1.6-3.3-3.4-3.3s-3.2 1.5-3.3 3.3v13.3c0 1.8 1.6 3.3 3.4 3.3s3.2-1.5 3.3-3.3c0-1.8 1.5-3.3 3.3-3.3h6.8c.7 6.5 3.2 12.7 7.4 17.8l-5.4 5.4c-1 1-2.5 1-3.5 0l-.6-.6c-1.3-1.3-3.4-1.3-4.7 0-1.4 1.5-1.3 3.8.4 5.1 2.9 2.8 5.6 5.6 8.5 8.4 1.2 1.9 3.7 2.2 5.2.7 1.3-1.3 1.3-3.4 0-4.7l-.6-.6c-1-1-1-2.5 0-3.5l5.4-5.4c5.1 4.1 11.3 6.7 17.8 7.4v6.8c0 1.8-1.5 3.3-3.3 3.3-1.8 0-3.3 1.6-3.3 3.4s1.5 3.2 3.3 3.3h13.3c1.8 0 3.3-1.6 3.3-3.4s-1.5-3.2-3.3-3.3c-1.8 0-3.3-1.5-3.3-3.3v-6.8c6.5-.7 12.7-3.2 17.8-7.4l4.8 4.8c1.3 1.3 1.3 3.4 0 4.7-1.3 1.3-1.3 3.5 0 4.8s3.4 1.2 4.7 0c1-1-3.5 3.5 9.4-9.4 1.3-1.3 1.3-3.4 0-4.7-1.3-1.3-3.4-1.3-4.7 0-1.3 1.3-3.4 1.3-4.7 0-.1-.1-5.2-5.2-4.8-4.8 4.1-5.1 6.7-11.3 7.4-17.8h6.8c1.8 0 3.4 1.5 3.3 3.3 0 1.9 1.5 3.4 3.3 3.4 1.8 0 3.3-1.5 3.3-3.3z" fill="#47C27C"/><path d="m49.6 72.3c6.5 11.2 22.5 11 28.9 0z" fill="#f5fdff"/><path d="m65.6 55.7c0-.7.4-1.3 1-1.6l10-5c.9-.4 1.9-.1 2.4.7.5.9.1 2-.8 2.4l-10 5c-1.2.6-2.6-.2-2.6-1.5z" fill="#ffc786"/><circle cx="75.7" cy="62.3" fill="#f5fdff" r="3.3"/><path d="m59.9 57.2-10-5c-.9-.4-1.2-1.5-.8-2.3.4-.9 1.5-1.3 2.4-.8l10 5c.9.4 1.2 1.5.8 2.3-.5.9-1.6 1.3-2.4.8z" fill="#ffc786"/><circle cx="52.3" cy="62.3" fill="#f5fdff" r="3.3"/></svg>